<?xml version="1.0" standalone="no"?>
<!DOCTYPE svg PUBLIC "-//W3C//DTD SVG 20010904//EN"
 "http://www.w3.org/TR/2001/REC-SVG-20010904/DTD/svg10.dtd">
<svg version="1.0" xmlns="http://www.w3.org/2000/svg"
 width="484.000000pt" height="484.000000pt" viewBox="0 0 484.000000 484.000000"
 preserveAspectRatio="xMidYMid meet">
<metadata>
Created by potrace 1.14, written by Peter Selinger 2001-2017
</metadata>
<g transform="translate(0.000000,484.000000) scale(0.100000,-0.100000)"
fill="#000000" stroke="none">
<path d="M2266 4812 c-3 -2 -31 -5 -63 -8 -59 -4 -102 -9 -160 -19 -18 -3 -48
-7 -65 -10 -59 -10 -73 -12 -75 -15 -2 -1 -6 -3 -10 -4 -5 -1 -26 -6 -48 -11
-47 -10 -54 -12 -57 -15 -3 -1 -21 -6 -50 -13 -7 -1 -19 -6 -25 -10 -7 -5 -13
-5 -13 -1 0 3 -7 1 -15 -6 -8 -7 -15 -10 -15 -6 0 4 -13 0 -30 -9 -16 -9 -30
-13 -30 -9 0 3 -11 -1 -25 -10 -13 -9 -29 -16 -35 -16 -20 0 -252 -110 -322
-153 -20 -12 -58 -35 -85 -51 -288 -173 -621 -516 -794 -821 -31 -56 -121
-229 -121 -235 0 -3 -5 -16 -11 -30 -6 -14 -11 -27 -12 -30 0 -3 -6 -14 -12
-25 -6 -11 -11 -23 -12 -28 0 -4 -7 -22 -14 -40 -11 -26 -27 -76 -31 -97 -1
-3 -5 -11 -9 -17 -5 -7 -6 -13 -3 -13 3 0 -1 -18 -9 -40 -8 -22 -12 -40 -8
-40 3 0 0 -6 -6 -14 -6 -8 -11 -18 -10 -22 1 -5 0 -11 -1 -14 -8 -23 -28 -123
-33 -175 -2 -11 -5 -24 -9 -30 -3 -5 -5 -25 -3 -43 1 -18 -1 -35 -5 -37 -5 -3
-7 -23 -5 -45 2 -22 -1 -43 -6 -46 -11 -7 -12 -361 -1 -368 5 -3 8 -24 7 -46
-1 -22 1 -43 5 -45 5 -3 6 -21 4 -40 -1 -19 1 -37 6 -40 5 -3 7 -15 5 -27 -3
-11 -1 -26 2 -32 4 -6 8 -22 10 -36 3 -27 10 -65 13 -65 3 0 11 -41 11 -57 0
-10 5 -20 10 -23 5 -4 7 -11 4 -16 -4 -5 -3 -15 2 -21 4 -7 8 -17 10 -23 13
-62 53 -178 64 -190 5 -5 9 -15 9 -22 0 -21 58 -146 149 -321 32 -63 170 -260
241 -345 171 -203 417 -413 626 -533 49 -28 231 -122 239 -124 3 0 26 -10 52
-21 27 -12 53 -22 58 -23 6 -1 21 -8 35 -16 14 -7 26 -13 27 -12 2 1 8 0 15
-3 7 -2 31 -9 53 -16 39 -12 50 -16 78 -22 6 -1 18 -6 25 -10 6 -5 12 -6 12
-3 0 2 15 0 33 -5 58 -18 71 -21 147 -33 14 -3 25 -6 25 -7 0 -3 127 -19 185
-22 25 -2 50 -5 55 -8 17 -9 450 2 450 11 0 1 16 4 35 5 40 4 91 12 135 20 17
4 38 6 47 6 10 0 20 4 23 9 3 5 12 7 19 4 8 -3 17 -1 20 5 4 6 13 8 20 5 8 -3
17 0 21 5 3 6 10 9 15 6 5 -3 23 1 40 10 16 8 30 13 30 11 0 -3 12 -1 28 5 15
6 38 13 52 16 13 2 31 10 39 16 8 7 17 11 20 11 3 -1 16 2 29 7 13 5 25 9 27
9 2 0 24 9 49 20 26 11 50 20 54 22 11 3 182 92 235 122 324 183 670 531 858
863 74 130 181 364 194 423 2 8 4 16 5 18 2 1 4 7 5 12 1 6 4 12 5 15 1 3 4
10 5 15 1 6 3 11 5 13 1 1 4 11 6 22 8 36 12 50 15 50 1 0 3 9 5 20 6 36 9 50
17 63 5 6 6 16 2 21 -3 5 -1 12 4 16 5 3 10 13 10 23 0 9 3 33 6 52 3 19 7 46
9 60 2 14 5 25 6 25 3 0 11 75 13 128 1 26 5 47 9 47 4 0 8 81 8 180 0 99 -3
180 -8 180 -4 0 -8 21 -9 48 -3 54 -10 127 -13 127 -1 0 -3 14 -5 30 -1 17 -3
30 -4 30 -4 0 -13 58 -12 77 0 10 -4 20 -9 23 -5 3 -7 12 -4 19 3 8 1 17 -5
20 -6 4 -8 13 -5 20 3 8 0 17 -5 21 -6 3 -9 11 -6 16 4 5 3 15 -2 22 -4 6 -9
18 -10 25 -7 29 -12 47 -13 50 -2 1 -4 7 -5 12 -1 6 -3 11 -4 13 -2 1 -4 13
-7 26 -2 14 -9 30 -15 38 -6 7 -8 13 -5 13 4 0 1 10 -6 23 -7 12 -13 24 -13
27 0 3 -6 14 -12 25 -6 11 -12 23 -12 27 -4 25 -90 206 -124 263 -120 201
-223 339 -362 484 -147 153 -358 320 -520 412 -64 35 -219 116 -230 119 -5 1
-21 7 -35 13 -14 6 -27 11 -30 12 -3 0 -16 7 -30 15 -14 7 -27 13 -30 13 -3
-1 -20 5 -39 13 -18 8 -44 16 -57 18 -13 3 -28 7 -34 11 -5 3 -18 8 -27 10
-10 1 -45 11 -78 20 -33 9 -69 18 -80 20 -11 2 -20 4 -20 5 0 2 -9 4 -20 5
-11 2 -33 6 -50 10 -16 3 -43 8 -60 10 -16 2 -48 7 -70 10 -90 14 -460 27
-469 17z"/>
</g>
</svg>
